<svg xmlns="http://www.w3.org/2000/svg" xmlns:xlink="http://www.w3.org/1999/xlink" width="239" height="183.482" viewBox="0 0 239 183.482">
  <defs>
    <clipPath id="clip-path">
      <rect id="Rectángulo_37" data-name="Rectángulo 37" width="81.179" height="69.63" transform="translate(0 0)" fill="#735f56"/>
    </clipPath>
  </defs>
  <g id="Grupo_394" data-name="Grupo 394" transform="translate(-96 -752)">
    <line id="Línea_7" data-name="Línea 7" y2="39.298" transform="translate(215.5 896.183)" fill="none" stroke="#9a8479" stroke-width="1"/>
    <g id="Grupo_361" data-name="Grupo 361" transform="translate(-3 -71.817)">
      <g id="Grupo_332" data-name="Grupo 332" transform="translate(99 912.772)">
        <g id="Grupo_331" data-name="Grupo 331">
          <path id="Trazado_161" data-name="Trazado 161" d="M0,11.111,6.483,31.664,0,51.317H31.214V11.111Z" transform="translate(0 3.911)" fill="#735f56"/>
          <path id="Trazado_162" data-name="Trazado 162" d="M9.892,29.752l17.84,15.022V29.7Z" transform="translate(3.481 10.453)" fill="#351e16"/>
          <path id="Trazado_163" data-name="Trazado 163" d="M87.668,11.111V51.317h31.214L112.4,31.664l6.484-20.552Z" transform="translate(120.118 3.911)" fill="#735f56"/>
          <path id="Trazado_164" data-name="Trazado 164" d="M87.668,44.774,105.51,29.752,87.668,29.7Z" transform="translate(120.118 10.453)" fill="#351e16"/>
          <rect id="Rectángulo_17" data-name="Rectángulo 17" width="211.996" height="40.206" transform="translate(13.374)" fill="#9a8479"/>
        </g>
      </g>
      <text id="Civil_Fiesta" data-name="Civil / Fiesta" transform="translate(219 940.772)" fill="#f7e8f9" font-size="28" font-family="Georgia" letter-spacing="0.05em"><tspan x="-87" y="0">Civil / Fiesta</tspan></text>
    </g>
    <g id="Grupo_381" data-name="Grupo 381" transform="translate(174.41 752)">
      <g id="Grupo_380" data-name="Grupo 380" clip-path="url(#clip-path)">
        <path id="Trazado_178" data-name="Trazado 178" d="M68.088,24.7a24.487,24.487,0,0,0-28.453.929c-.011.009-.017.022-.029.031l-.058.049c-.015.015-.026.034-.042.05-.065.066-.131.132-.2.2a3.8,3.8,0,0,1-.315.267c-.026.027-.056.049-.08.079a2.653,2.653,0,0,1-.864.672c-.177.165-.354.334-.533.5-.009.012-.014.024-.022.036a6.669,6.669,0,0,1-.672.773,4.315,4.315,0,0,1-.6.549,21.113,21.113,0,0,0-6.551-3.583A10.948,10.948,0,0,0,31.6,22.03a37.168,37.168,0,0,1,3.191-5.336.382.382,0,0,0-.24-.592c.163.043.383-.086.3-.278-.451-1.091-1.723-1.95-2.573-2.746-1.169-1.1-2.254-2.234-3.339-3.4,0-.036,0-.073,0-.108a.377.377,0,0,0-.031-.121.423.423,0,0,0-.774-.287l-.043.068c-.029,0-.052-.015-.086,0-3.413,1.235-7.3.526-10.837.329a.45.45,0,0,0-.539.221c-2.429,1.538-4.226,3.775-6.228,5.8-.41.416.275,1.068.628.63a32.433,32.433,0,0,1,5.586-5.432,18.8,18.8,0,0,0,.855,5.533.372.372,0,0,0-.171.122,15.611,15.611,0,0,1-5.28-.967c-.52-.214-.794.685-.236.858A22.327,22.327,0,0,0,17,17.185c-.552,1.4-1.424,2.663-1.842,4.117A28.9,28.9,0,0,1,11.627,16.3c-.189-.365-.829-.1-.671.282A27.075,27.075,0,0,0,17.008,25.1a21.519,21.519,0,0,0,6.107,42.049,20.872,20.872,0,0,0,13.59-5.064,23.935,23.935,0,0,0,4.023,3.42A24.565,24.565,0,0,0,68.088,24.7m-36.82-3.484a38.434,38.434,0,0,0-2.339,3.809c-.584-.169-1.181-.305-1.783-.423.753-2.1,1.461-4.218,2.325-6.274.2.214.389.434.6.639a5.256,5.256,0,0,0,1.733,1.26c-.179.329-.357.66-.536.989m.866-1.6c-.164-.1-.336-.186-.511-.293A6.42,6.42,0,0,1,30.391,18.3a9.18,9.18,0,0,1-.605-.713c.014-.034.028-.069.043-.1a14.287,14.287,0,0,0,3.934-.709c-.577.926-1.106,1.885-1.629,2.847m-3.2-8.751c.695.755,1.469,1.453,2.211,2.144.613.572,1.232,1.137,1.84,1.714a8.961,8.961,0,0,0,1.389,1.286.309.309,0,0,0-.234-.033,23.155,23.155,0,0,1-3.872.505c.195-.457-.4-.843-.691-.536a.7.7,0,0,0-.355-.487.268.268,0,0,0-.321.08,24.374,24.374,0,0,0,.033-4.673m-.193,6.647.108.133a52.4,52.4,0,0,1-2.487,6.726.359.359,0,0,0-.025.081,20.842,20.842,0,0,0-2.577-.244c.131-2.277.048-4.575.039-6.862,1.625.067,3.293.185,4.942.166m-.674-6.737c.013,1.765-.152,3.53-.119,5.28a.43.43,0,0,0,0,.47v.017c-1.377,0-2.762-.046-4.151-.072,0-.114,0-.229,0-.343a27.5,27.5,0,0,0,4.265-5.352m-.522-.693a38.25,38.25,0,0,1-2.27,3.243c-.584.743-1.253,1.425-1.876,2.138a.492.492,0,0,0-.153.011,15.074,15.074,0,0,1-2.6-2.329,29.871,29.871,0,0,1-2.377-2.754c3.092.065,6.28.516,9.28-.309M22.959,24.19c-.61.007-1.213.046-1.81.106-.747-2.415-2.095-4.6-2.755-7.035,1.284.041,2.57.037,3.844.045.224,0,.455.011.682.017-.008,2.289-.09,4.588.039,6.867M20.052,13.74c.865.907,1.872,1.579,2.8,2.4-.083.1-.168.208-.246.317-.124,0-.247-.007-.372-.007-1.211,0-2.514.038-3.83.021a21.928,21.928,0,0,1-.885-5.589c.809.969,1.658,1.947,2.529,2.863m-4.258,8.331a.463.463,0,0,0,.073-.144A30.223,30.223,0,0,1,17.639,17.7c.737,2.284,1.791,4.452,2.625,6.7a22.037,22.037,0,0,0-2.331.463c-.664-.975-1.4-1.888-2.139-2.791M31.52,64.017a1.376,1.376,0,0,0-.291-.831c-.294-.37-.831.158-.524.525.139.166.219.35.375.514h0c-.157.071-.323.123-.481.19a2.651,2.651,0,0,0-.006-.671.37.37,0,0,0-.74,0c0,.321.032.682.306.844a19.069,19.069,0,0,1-7.047,1.378,20.3,20.3,0,0,1,0-40.6,20.267,20.267,0,0,1,17.165,30.6,3.37,3.37,0,0,0-.813-.879.287.287,0,0,0-.406.406,2.894,2.894,0,0,0,.983.866c-.077.124-.146.253-.226.375l-.093-.092c-.279-.277-.532-.577-.808-.856a.308.308,0,0,0-.341-.079c.219-.329.433-.666.639-1.012a2.523,2.523,0,0,0,.88.51.221.221,0,0,0,.269-.269,1.334,1.334,0,0,0-.3-.448.251.251,0,0,0,.339-.166,1.078,1.078,0,0,0-.476-.991c3.353-7.273,1.181-14.371-3.436-19.32-.133-.181-.262-.358-.382-.529a.348.348,0,0,0-.264-.154,21.823,21.823,0,0,0-4-3.094c-.46-.308-.918-.606-1.345-.91a.357.357,0,0,0-.384-.03c-7.24-3.514-16.248-2.843-21.82,5.4a.238.238,0,0,0-.023.225A18.266,18.266,0,0,0,5.545,45.324a.272.272,0,0,0-.413.127c-1.887,6.285,4.06,14.864,10.055,16.74a.235.235,0,0,0,.143-.009c1.421,1,3.2,1.739,4.744,1.178a.269.269,0,0,0,0-.514,26.361,26.361,0,0,1-2.754-.459,6.767,6.767,0,0,1-2.529-1.747,18.281,18.281,0,0,0,16.58,1.219.305.305,0,0,0,0,.2c.161.5.314,1.343.812,1.593a.465.465,0,0,0,.051.011c-.234.124-.474.238-.712.353M50.762,25.792a5.681,5.681,0,0,0-1.172-.041c.438-.1.871-.217,1.318-.286a.351.351,0,0,0,.32.212c1.055.068,2.108.034,3.163.084a27.842,27.842,0,0,1,3.163.587c.418.068.589-.555.264-.764-.032-.02-.07-.032-.1-.052a21.022,21.022,0,0,1,11.64,5.9c7.813,8.2,6.453,20.227-2.074,27.667-7.736,6.747-20.187,6.117-27.393-.364a21.573,21.573,0,0,0-.472-26.748,19.485,19.485,0,0,1,4.118-3.632.446.446,0,0,0,.632.2,21.458,21.458,0,0,1,3.016-1.338c1.178-.45,2.421-.541,3.607-.946a.244.244,0,0,0-.027-.481M62.223,63.517c-6.364,2.167-12.657,3.121-18.43-1.08a20.764,20.764,0,0,0,17.17,1.14c.412-.155.8-.345,1.2-.519a.588.588,0,0,0,.063.459M31.34,36.986a4.962,4.962,0,0,1-.256.923c-.034.135-.049.271-.088.41a.609.609,0,0,1-.137.243,24.63,24.63,0,0,0,3.469,20.633A16.963,16.963,0,0,1,19.27,61.907C7.639,58.719,1.546,42.472,10.427,33.377l0,0c5.393-4.912,12.789-6.716,19.457-3.832a.4.4,0,0,0,.163.559,18.328,18.328,0,0,1,2.405,1.547,9.376,9.376,0,0,1,1.051.915c-.068.078-.121.171-.2.242-.124.217-.264.426-.381.644h0c-.124.252-.242.506-.361.766a.62.62,0,0,1-.082.113c-.259.608-.528,1.213-.8,1.817-.1.254-.2.506-.3.761l-.038,0a.272.272,0,0,1-.011.025.325.325,0,0,1,0,.054M13.977,60.107a.5.5,0,0,0-.3.271C9.069,56.794,5.363,52.67,5.6,46.4a18.313,18.313,0,0,0,7.43,13.085c.308.225.631.414.946.619M34.7,35.042c.264.267.485.62.77.873-.06.1-.114.211-.173.316a3.232,3.232,0,0,0-.568-.79c-.249-.307-.514-.6-.779-.891.025-.05.044-.1.07-.151.23.212.459.422.68.643m-.332-1.319c.021-.038.037-.076.058-.114.266.2.53.4.788.6.306.243.335.641.675.844.03.019.067.005.1.008-.047.072-.088.148-.135.22a5.547,5.547,0,0,0-.52-.6c-.31-.331-.642-.646-.968-.965m-.247,2.058c.264.326.48.747.872.917a.247.247,0,0,0,.046.008c-.124.238-.239.478-.352.72-.134-.682-.765-1.185-1.174-1.723a.439.439,0,0,0-.06-.055c.062-.137.11-.277.175-.413.165.181.338.354.493.546m-.992.634A3.563,3.563,0,0,0,34.473,37.7c.029.012.061-.009.092-.019-.1.231-.184.473-.278.706a11.985,11.985,0,0,0-1.293-1.267.377.377,0,0,0-.1-.067c.08-.212.146-.429.232-.641M36.78,35.9c.061.1.125.194.184.293a24.88,24.88,0,0,1,1.1,2.6c.151.336.68.158.672-.182,0-.034-.01-.067-.011-.1a18.768,18.768,0,0,1,1.361,11.379,16.6,16.6,0,0,1-2.679,6.123,16.626,16.626,0,0,1-2.814-6.477v-.006A22.839,22.839,0,0,1,36.78,35.9M32.522,63.5a.242.242,0,0,0,.015-.056,1.759,1.759,0,0,0-.244-.741c-.108-.262-.159-.562-.246-.834a.328.328,0,0,0-.231-.224c.15-.072.3-.136.449-.212a.39.39,0,0,0,.027.115c.213.455.339,1.3.751,1.665-.17.1-.348.191-.521.287m1.916-1.188a3.1,3.1,0,0,0-.556-1.235c-.177-.327-.665-.038-.5.29a4.533,4.533,0,0,0,.683,1.2l.007,0c-.166.112-.34.211-.509.319a2.9,2.9,0,0,0-.218-.623c-.141-.362-.279-.72-.448-1.07a.308.308,0,0,0-.054-.071c.435-.246.862-.506,1.276-.793a4.328,4.328,0,0,0,.957,1.529c-.209.159-.428.3-.642.454m1.118-.826a4.033,4.033,0,0,0-.308-.563c-.2-.325-.367-.669-.539-1.008.028-.022.059-.04.087-.062.349.467.722.919,1.106,1.364-.111.094-.233.177-.346.269M73.6,57.973a23.017,23.017,0,0,1-40.964-20.2A3.508,3.508,0,0,0,34.087,38.9a18.584,18.584,0,0,0,.388,13.525.262.262,0,0,0,.2.165,20.479,20.479,0,0,0,8.065,9.215.319.319,0,0,0-.148.478c4.724,5.8,16.675,5.514,22.321.93A.3.3,0,0,0,65,63.071c1.866-.732,3.71-1.979,4.176-3.822.071-.279-.247-.549-.486-.326a31.087,31.087,0,0,1-2.213,2.363,7.847,7.847,0,0,1-3.283,1.326C73.934,57.3,78.967,44.729,72.63,33.953c-4.695-7.985-12.88-10.434-20.6-9.114-.256.013-.507.025-.746.032a.411.411,0,0,0-.317.155,25.362,25.362,0,0,0-5.509,1.892c-.586.248-1.165.5-1.727.719a.416.416,0,0,0-.277.351,23.767,23.767,0,0,0-4.49,3.463c-.169-.194-.363-.361-.539-.547a.667.667,0,0,0,.46.042.254.254,0,0,0,.184-.242c-.028-.491-.775-.714-1.147-.893a5.725,5.725,0,0,0-.549-.26c.077-.084.16-.155.238-.237.469.2.828.54,1.3.72.21.08.325-.174.256-.333a2.122,2.122,0,0,0-1.006-.936c.1-.1.207-.185.309-.282.008.013,0,.028.015.041a1.062,1.062,0,0,0,.782.472.219.219,0,0,0,.189-.327,2.919,2.919,0,0,0-.592-.525c-.005,0-.011,0-.017-.007.12-.11.249-.206.371-.314.043.049.088.1.127.149a.739.739,0,0,0,.305.141.234.234,0,0,0,.285-.286,1.28,1.28,0,0,0-.227-.419c.027-.022.055-.04.082-.062a1.19,1.19,0,0,0,.394-.169.229.229,0,0,0,.07-.188A23.021,23.021,0,0,1,73.6,57.973" fill="#735f56"/>
        <path id="Trazado_179" data-name="Trazado 179" d="M12.93,6.59c.614.493,1.256.963,1.836,1.5a.421.421,0,1,0,.511-.664C14.661,6.995,14.1,6.479,13.523,6c-.482-.4-.978-.993-1.62-1.077a.3.3,0,0,0-.289.379c.208.575.856.919,1.316,1.29" fill="#735f56"/>
        <path id="Trazado_180" data-name="Trazado 180" d="M18.732,5.978c.15.351.688.095.6-.253A23.469,23.469,0,0,0,18.3,2.843,17.263,17.263,0,0,0,17.29.136a.29.29,0,0,0-.538.146,10,10,0,0,0,.861,2.751c.35.992.7,1.978,1.119,2.945" fill="#735f56"/>
        <path id="Trazado_181" data-name="Trazado 181" d="M26.048,6.69c.089-.471.256-.955.371-1.423.127-.508.588-1.4.382-1.9a.3.3,0,0,0-.425-.172c-.544.26-.643,1.333-.762,1.853A5.385,5.385,0,0,0,25.405,6.6c.023.348.571.47.643.087" fill="#735f56"/>
        <path id="Trazado_182" data-name="Trazado 182" d="M28.679,6.429c.344-.693,1.187-1.867.866-2.663a.271.271,0,0,0-.445-.118,2.884,2.884,0,0,0-.526,1.074c-.188.435-.435.845-.653,1.264-.262.5.507.949.758.443" fill="#735f56"/>
        <path id="Trazado_183" data-name="Trazado 183" d="M0,46.9c.188,4.1,1.038,8.827,3.572,12.185.167.22.608.1.488-.206C2.449,54.792.837,51.44.89,46.9c.006-.575-.915-.572-.889,0" fill="#735f56"/>
        <path id="Trazado_184" data-name="Trazado 184" d="M72.758,25.609c-.4-.268-.807.314-.5.643a40.959,40.959,0,0,1,4.278,5.022,37.133,37.133,0,0,1,2.71,5.285c.127.27.512.071.457-.193a18.334,18.334,0,0,0-6.948-10.757" fill="#735f56"/>
        <path id="Trazado_185" data-name="Trazado 185" d="M80.99,39.644a.556.556,0,0,0-1.072.295c.188.637.143,1.3.385,1.925a.365.365,0,0,0,.7,0,3.452,3.452,0,0,0-.01-2.22" fill="#735f56"/>
        <path id="Trazado_186" data-name="Trazado 186" d="M31.526,7.853a34.722,34.722,0,0,1,3.9-4.2c.309-.25-.184-.741-.431-.432-.657.818-1.471,1.542-2.195,2.3-.584.612-1.172,1.238-1.8,1.8-.358.319.208.883.524.524" fill="#735f56"/>
      </g>
    </g>
  </g>
</svg>
