<svg xmlns="http://www.w3.org/2000/svg" width="118" height="56.512" viewBox="0 0 118 56.512">
  <path id="Trazado_169" data-name="Trazado 169" d="M234.955,56.666a1.456,1.456,0,0,0-1.457-.657c-25.59,3.847-35.042,14.538-37.962,19.05a7.413,7.413,0,0,0-5.418-2.368H179.729a7.411,7.411,0,0,0-5.418,2.368c-2.919-4.511-12.371-15.2-37.962-19.05a1.454,1.454,0,0,0-1.457.657l-.885,1.367c-10.777,16.659-10.777,35.769,0,52.428l.885,1.367a1.476,1.476,0,0,0,1.238.674,1.448,1.448,0,0,0,.219-.016c25.589-3.847,35.042-14.538,37.962-19.05A7.414,7.414,0,0,0,179.73,95.8h10.388a7.414,7.414,0,0,0,5.419-2.368c2.92,4.512,12.372,15.2,37.962,19.05a1.438,1.438,0,0,0,.219.016,1.476,1.476,0,0,0,1.238-.674l.884-1.367c10.777-16.659,10.777-35.766,0-52.428Zm-69.116,41.5c-4.8,3.811-13.708,8.818-28.989,11.261l-.364-.564c-10.119-15.641-10.119-33.581,0-49.224l.364-.564c15.281,2.442,24.184,7.451,28.989,11.261a24.38,24.38,0,0,1,6.782,7.7c-.055.181-.128.353-.168.539l-6.075-1.728a1.475,1.475,0,0,0-.806,2.837l6.706,1.908v5.327l-6.706,1.908a1.475,1.475,0,1,0,.806,2.837l6.075-1.728c.04.186.114.358.168.539a24.392,24.392,0,0,1-6.782,7.7Zm24.28-5.309H179.731a4.511,4.511,0,0,1-4.506-4.506v-8.2a4.511,4.511,0,0,1,4.506-4.506h10.388a4.512,4.512,0,0,1,4.506,4.506v8.2A4.512,4.512,0,0,1,190.119,92.853Zm43.244,16.006-.364.565c-15.281-2.442-24.184-7.451-28.989-11.261a24.373,24.373,0,0,1-6.782-7.7c.055-.181.128-.354.168-.54l6.075,1.728a1.475,1.475,0,1,0,.806-2.837l-6.706-1.908V81.582l6.706-1.908a1.475,1.475,0,0,0-.806-2.837L197.4,78.565c-.04-.186-.113-.358-.168-.538a24.332,24.332,0,0,1,6.782-7.7c4.8-3.811,13.708-8.818,28.989-11.261l.364.564c10.119,15.645,10.119,33.586,0,49.226Z" transform="translate(-125.924 -55.99)" fill="#9a8479"/>
</svg>
