<svg xmlns="http://www.w3.org/2000/svg" width="53.33" height="53.268" viewBox="0 0 53.33 53.268">
  <path id="Unión_1" data-name="Unión 1" d="M26.631,53.267H.92A.918.918,0,0,1,0,52.348V24.8a.918.918,0,0,1,.269-.65l3.678-3.673a.919.919,0,1,1,1.3,1.3L2.421,24.594l24.245,13.84L50.91,24.6l-2.826-2.823a.919.919,0,1,1,1.3-1.3l3.678,3.673a.918.918,0,0,1,.269.649V52.349a.918.918,0,0,1-.92.919H26.631Zm3.652-1.828a.2.2,0,0,1,.06-.009H50.191L34.7,35.96l-7.583,4.328a.919.919,0,0,1-.912,0h0L18.626,35.96,3.139,51.43H28.131a.929.929,0,0,1,.125.009ZM36.36,35.016,51.493,50.131V26.378ZM1.84,50.131,16.973,35.016,1.84,26.378Zm28.5,1.3h0ZM17.47,29.389a.918.918,0,0,1-.92-.919v-10.1h-.92a.917.917,0,0,1-.919-.919V11.94a.917.917,0,0,1,.919-.919h1.428a3.654,3.654,0,0,1,3.17-5.511h.92a6.419,6.419,0,0,1,5.517,3.17,6.419,6.419,0,0,1,5.517-3.17h.92a3.661,3.661,0,0,1,3.169,5.511H37.7a.919.919,0,0,1,.92.919v5.51a.919.919,0,0,1-.92.919h-.92v10.1a.918.918,0,0,1-.92.919Zm.92-1.837H34.94V18.368H31.263V22.96a.921.921,0,0,1-1.331.822h0L26.665,22.15,23.4,23.782a.92.92,0,0,1-1.331-.822V18.368H18.39ZM27.076,20.3h0l2.347,1.172V18.368H23.907v3.105L26.254,20.3a.921.921,0,0,1,.822,0Zm4.186-3.77H36.78V12.858H31.263Zm-7.356,0h5.517V12.858H23.907Zm-7.356,0h5.517V12.858H16.551Zm3.678-5.511h5.425a4.606,4.606,0,0,0-4.506-3.673h-.919a1.836,1.836,0,0,0-1.3,3.137h0A1.832,1.832,0,0,0,20.229,11.021Zm9.046-2.637a4.6,4.6,0,0,0-1.6,2.637H33.1a1.837,1.837,0,1,0,0-3.673h-.92A4.611,4.611,0,0,0,29.275,8.384ZM44.4,25.447a.917.917,0,0,1-.268-.65V1.837H9.195V24.8a.92.92,0,0,1-1.839,0V.919A.918.918,0,0,1,8.275,0h36.78a.918.918,0,0,1,.92.919V24.8a.92.92,0,0,1-1.57.65Z" fill="#f7e8f9"/>
</svg>
