<svg xmlns="http://www.w3.org/2000/svg" width="68.494" height="72.04" viewBox="0 0 68.494 72.04">
  <path id="noun-gift-3849152" d="M211.6,84.159H196.106a9.506,9.506,0,0,0,6.067-8.5,7.582,7.582,0,0,0-6.4-7.207c-4.9-.416-9.293,3.7-12.7,11.981-3.394-8.3-7.737-12.431-12.713-11.981h0a7.581,7.581,0,0,0-6.394,7.207,9.506,9.506,0,0,0,6.067,8.5H154.542a5.721,5.721,0,0,0-5.72,5.72V95.8a5.72,5.72,0,0,0,4.245,5.5v29.11a10.059,10.059,0,0,0,10.052,10.048h39.9a10.059,10.059,0,0,0,10.052-10.048V101.3a5.72,5.72,0,0,0,4.245-5.5V89.879a5.721,5.721,0,0,0-5.72-5.72ZM176.513,97.7V87.973h13.133V97.7Zm13.133,3.813v35.128H176.5V101.518Zm5.422-29.285h.347a3.763,3.763,0,0,1,2.955,3.508c.068,2.647-3.241,5.964-12.469,7.867,2.631-7.211,5.937-11.375,9.155-11.375Zm-27.292,3.528a3.767,3.767,0,0,1,2.951-3.508h.351c3.2,0,6.525,4.164,9.152,11.394-9.213-1.922-12.523-5.239-12.454-7.885ZM152.634,89.868a1.906,1.906,0,0,1,1.906-1.906h18.147v9.731H154.54a1.906,1.906,0,0,1-1.906-1.906Zm4.244,40.543V101.517h15.81v35.128h-9.571a6.239,6.239,0,0,1-6.239-6.235Zm46.14,6.235h-9.571V101.518h15.81v28.894a6.239,6.239,0,0,1-6.239,6.235ZM213.5,95.8a1.907,1.907,0,0,1-1.907,1.906H193.448V87.973h18.147A1.907,1.907,0,0,1,213.5,89.88Z" transform="translate(-148.821 -68.419)" fill="#cfa88c"/>
</svg>
