<svg xmlns="http://www.w3.org/2000/svg" xmlns:xlink="http://www.w3.org/1999/xlink" width="69.016" height="69.016" viewBox="0 0 69.016 69.016">
  <defs>
    <filter id="Trazado_168" x="26.682" y="14.001" width="30.148" height="44.515" filterUnits="userSpaceOnUse">
      <feOffset dx="2" dy="2" input="SourceAlpha"/>
      <feGaussianBlur stdDeviation="0.5" result="blur"/>
      <feFlood flood-opacity="0.161"/>
      <feComposite operator="in" in2="blur"/>
      <feComposite in="SourceGraphic"/>
    </filter>
  </defs>
  <g id="Grupo_399" data-name="Grupo 399" transform="translate(-180.5 -1973.176)">
    <path id="Trazado_167" data-name="Trazado 167" d="M0,34.508A34.508,34.508,0,1,1,34.508,69.015,34.509,34.509,0,0,1,0,34.508" transform="translate(180.5 1973.177)" fill="#9a8479"/>
    <g transform="matrix(1, 0, 0, 1, 180.5, 1973.18)" filter="url(#Trazado_168)">
      <path id="Trazado_168-2" data-name="Trazado 168" d="M37.7,22.41V59.756a2.054,2.054,0,0,0,3.312,1.625l21.947-17.01a3.58,3.58,0,0,0,0-5.662L40.287,21.14a1.606,1.606,0,0,0-2.59,1.27" transform="translate(-11.01 -6.8)" fill="#fff"/>
    </g>
  </g>
</svg>
