<svg xmlns="http://www.w3.org/2000/svg" xmlns:xlink="http://www.w3.org/1999/xlink" width="1573.292" height="1422.901" viewBox="0 0 1573.292 1422.901">
  <defs>
    <clipPath id="clip-path">
      <rect id="Rectángulo_14" data-name="Rectángulo 14" width="1311.531" height="871.956" fill="#9a8479"/>
    </clipPath>
  </defs>
  <g id="Grupo_326" data-name="Grupo 326" transform="translate(449.091) rotate(31)" clip-path="url(#clip-path)">
    <path id="Trazado_160" data-name="Trazado 160" d="M204.764,778.3C139.246,687.6,111.428,567.217,61.911,470.6,1.958,353.623-44.789,211.868,72.1,103.388c51-47.33,126.945-74.473,204.834-73.979C408.4,30.245,504.464,149.7,637.762,128.5c61.112-9.722,91.416-50.319,133.171-82.559,103.622-80,299.952-42.721,408.61,14.885,118.353,62.739,161.87,197.288,111.063,303.808-69.969,146.714-238.021,181.965-410.864,204.28-106.48,13.745-188.347,68.794-251.486,136.4-63.007,67.47-97.327,155.911-217.839,165.883-84.75,7.012-164.162-35.469-205.652-92.9" transform="translate(0 0)" fill="#9a8479" fill-rule="evenodd"/>
  </g>
</svg>
